<svg width="100%" height="100%" viewBox="0 0 4438 1001" version="1.1"
  style="fill-rule:evenodd;clip-rule:evenodd;stroke-linecap:round;stroke-linejoin:round;stroke-miterlimit:1.5;">
  <rect id="Color_Horizontal" x="0.016" y="0.25" width="4437.32" height="1000.4" style="fill:none;"></rect>
  <path id="Swan_BG"
    d="M365.689,265.587c0,0 -28.461,16.35 -27.482,15.788c0.979,-0.563 -25.578,33.755 -20.557,38.776c5.02,5.02 33.64,11.02 33.64,11.02l24.49,0c0,0 32.627,-11.346 39.812,-27.099c7.185,-15.752 19.196,-14.606 19.196,-14.606c0,0 14.75,2.817 20.135,26.263c5.385,23.445 6.648,19.635 0,45.627c-6.648,25.993 -36.62,68.48 -36.62,68.48l-33.961,37.468l-43.013,42.071l-30.021,55.476l0,48.138l9.037,47.802l23.065,22.183l44.221,21.403l146.558,16.378l56.612,-11.018l59.291,-27.284l43.263,-36.959l35.417,-50.872l11.474,-56.323l1.612,-57.068l-1.12,-27.315c0,0 -55.815,48.698 -81.588,51.339c-25.774,2.64 -51.607,-4.886 -51.607,-4.886l-68.401,5.045l-47.063,0.218l-30.398,5.23c0,0 -35.214,13.341 -52.771,30.036c-17.557,16.695 58.825,-55.937 58.825,-55.937c0,0 10.836,-29.563 21.579,-54.745c10.742,-25.183 15.752,-57.331 15.752,-57.331l-5.495,-45.62l-11.546,-37.39l-13.914,-23.399l-60.295,1.776l-48.127,-2.665Z"
    style="fill:#fff;stroke:#000;stroke-width:1px;"></path>
  <g id="Swan">
    <g id="Water-Colors--Secondary-">
      <path
        d="M771.871,673.623c-0.929,-16.106 -27.784,-29.314 -71.304,-38.074c-0.918,1.585 -2.095,3.011 -3.516,4.216c24.287,8.032 38.531,18.162 39.203,29.81c2.032,35.261 -120.863,71.026 -274.495,79.883c-54.703,3.153 -105.92,2.468 -149.299,-1.312c49.611,7.108 114.364,9.426 184.916,5.359c153.633,-8.857 276.528,-44.621 274.495,-79.882"
        style="fill:#1b2333;fill-rule:nonzero;"></path>
      <path
        d="M178.449,660.794c0,35.319 124.75,63.951 278.637,63.951c54.795,0 105.886,-3.632 148.976,-9.901c-49.12,9.951 -113.632,15.992 -184.301,15.992c-153.888,0 -278.638,-28.632 -278.638,-63.951c0,-22.744 51.736,-42.712 129.662,-54.05c-57.842,11.719 -94.336,28.859 -94.336,47.959"
        style="fill:#1b2333;fill-rule:nonzero;"></path>
    </g>
    <g id="Water-Colors--Primary-">
      <path
        d="M396.462,712.027c-88.672,-12.42 -151.949,-35.824 -150.457,-58.445c1,-15.152 30.846,-26.838 77.341,-33.106c-62.407,4.915 -104.49,18.046 -105.681,36.087c-1.704,25.832 81.03,52.69 189.616,63.038c-4.631,-1.818 -8.206,-4.443 -10.819,-7.574"
        style="fill:#1890ff;fill-rule:nonzero;"></path>
      <path
        d="M844.113,675.879c2.929,37.523 -127.231,78.283 -290.721,91.04c-58.212,4.543 -112.794,4.919 -159.091,1.83c53.009,6.501 122.047,7.571 197.126,1.713c163.489,-12.758 293.649,-53.518 290.721,-91.041c-1.886,-24.162 -58.504,-41.087 -142.232,-46.673c62.423,7.654 102.614,22.84 104.197,43.131"
        style="fill:#1890ff;fill-rule:nonzero;"></path>
    </g>
    <g id="Goose-Colors">
      <path
        d="M408.251,455.093c0,0 -79.651,70.123 -67.47,153.564c0,0 1.523,-25.581 27.104,-45.679c0,0 -41.891,96.231 133.3,146.175l-127.971,-10.506l-30.149,-7.766l-31.062,-38.371l-5.024,-50.477l7.765,-56.642l27.408,-38.143"
        style="fill:#1890ff;fill-rule:nonzero;"></path>
      <path
        d="M416.725,300.632c0,0 -74.881,38.891 -83.769,-16.715c0,0 -18.083,26.355 -15.867,31.921c2.216,5.567 15.935,19.761 16.76,20.055c0.824,0.294 20.62,-0.782 20.62,-0.782l29.799,-5.278c0,0 15.478,-9.739 19.035,-12.023c3.557,-2.284 9.22,-10.106 9.22,-10.106l2.207,-4.23"
        style="fill:#1890ff;fill-rule:nonzero;"></path>
      <path
        d="M456.775,584.13c0,0 84.541,-27.091 86.368,-76.425c0,0 90.903,-11.116 91.817,-9.897c0.913,1.218 -6.396,24.362 -7.614,28.321c-1.218,3.959 -47.203,43.7 -79.407,48.953c-32.204,5.254 -59.383,9.048 -59.383,9.048"
        style="fill:#1890ff;fill-rule:nonzero;"></path>
      <path
        d="M542.178,659.441c105.369,-12.495 146.105,-110.015 146.105,-110.015c0,0 -56.229,75.506 -144.933,90.114c-91.488,15.065 -147.009,-31.787 -147.009,-31.787c0,0 47.463,63.353 145.837,51.688"
        style="fill:#1890ff;fill-rule:nonzero;"></path>
    </g>
    <g id="Cap-Colors">
      <path
        d="M339.64,265.141c0.399,-7.081 1.154,-21.24 0.889,-22.378l2.232,-28.55l-2.476,4.861c0,0 -11.192,18.008 -7.768,46.067l7.123,0Z"
        style="fill:#18ffb1;fill-rule:nonzero;"></path>
      <path
        d="M412.575,222.587c-2.309,-7.541 -7.766,-17.282 -8.755,-19.033c-0.99,-1.752 -3.905,-4.302 -3.905,-4.302c-25.871,0.724 -43.367,9.003 -43.367,9.003c-12.391,13.324 -14.801,54.926 -14.801,54.926l0.074,0.215c22.095,3.201 46.646,3.837 76.15,-0.698c0,0 0.558,-20.661 -5.396,-40.111"
        style="fill:#18ffb1;fill-rule:nonzero;"></path>
      <path
        d="M457.569,265.45c-0.152,-0.457 -0.457,-7.766 -1.066,-12.791c-0.609,-5.024 -13.552,-38.98 -13.552,-38.98c0,0 -4.263,-4.415 -9.61,-7.602c-5.346,-3.187 -24.649,-6.101 -24.649,-6.101c13.627,19.49 10.255,61.928 10.255,61.928l-5.63,3.071l0,1.922c8.003,0.578 29.573,2.055 41.211,2.055c14.47,0 3.193,-3.045 3.041,-3.502"
        style="fill:#18ffb1;fill-rule:nonzero;"></path>
      <path
        d="M457.242,248.24c-0.167,-10.039 -3.375,-21.123 -10.103,-33.418c0,0 7.765,1.522 11.724,7.156c3.959,5.634 10.354,28.322 11.116,30.834c0.761,2.512 3.958,7.373 3.502,9.092c-0.457,1.719 -12.562,3.317 -14.466,3.546c-1.903,0.228 -2.816,4.111 -4.111,-3.122"
        style="fill:#18ffb1;fill-rule:nonzero;"></path>
    </g>
    <path
      d="M341.124,208.389c0,0 -7.537,38.485 -5.367,56.3l5.367,-7.423c0,0 2.513,-37.115 2.741,-37.914c0.229,-0.799 1.827,-20.099 1.827,-20.099"
      style="fill:#1b2333;fill-rule:nonzero;"></path>
    <g opacity="0.2">
      <path
        d="M346.885,263.039c26.218,-6.701 49.282,-16.824 67.363,-32.355c0,0 5.883,20.288 2.476,29.78c-3.407,9.493 -35.98,6.23 -35.98,6.23"
        style="fill:#1b2333;fill-rule:nonzero;"></path>
    </g>
    <g opacity="0.2">
      <path
        d="M451.967,267.583c1.507,-0.884 2.611,-1.976 3.1,-3.338c3.407,-9.493 -2.476,-29.781 -2.476,-29.781c-3.909,12.413 -20.686,18.561 -33.876,19.439l-1.395,10.771c11.621,0.288 23.15,1.425 34.647,2.909"
        style="fill:#1b2333;fill-rule:nonzero;"></path>
    </g>
    <path
      d="M459.433,261.649c-2.064,-16.313 -5.54,-33.88 -21.064,-57.323c2.127,1.087 4.206,2.26 6.234,3.524c2.177,2.145 4.392,4.601 6.204,7.196c6.031,8.251 10.415,17.696 14.111,27.003c0.515,1.385 1.019,2.774 1.503,4.167c0.45,1.274 0.98,2.643 1.516,4.066c0.664,1.96 1.317,3.929 1.977,5.896c0.16,0.578 0.292,1.158 0.418,1.737c-2.277,2.139 -6.176,3.275 -10.899,3.734m-38.684,-4.014c-0.378,-14.164 -3.337,-28.536 -8.894,-42.222c-1.236,-3.05 -2.643,-6.163 -4.223,-9.214c-1.927,-4.061 -5.523,-9.437 -7.71,-12.578c9.847,0.844 20.011,3.017 29.633,6.727c2.13,2.997 4.91,7.442 6.014,9.399c10.768,15.552 16.401,33.962 18.967,52.153c-11.731,0.124 -26.202,-2.617 -33.787,-4.265m-5.202,-1.201c-22.179,4.088 -47.084,6.104 -73.793,6.747c-0.084,-0.031 -0.161,-0.066 -0.246,-0.097c0.622,-32.493 4.355,-50.222 6.93,-56.753c0.147,-0.504 0.348,-0.977 0.598,-1.42c0.08,-0.174 0.141,-0.36 0.224,-0.532c-0.002,0.012 0.575,-0.559 1.664,-1.464c4.919,-2.934 10.237,-5.389 15.788,-6.86c8.068,-2.138 17.643,-3.133 27.736,-2.759c6.374,7.088 11.189,18.796 14.132,26.739c4.434,11.939 6.809,24.247 7.236,36.466c-0.158,-0.039 -0.269,-0.067 -0.269,-0.067m-75.676,-32.924c-1.72,12.542 -3.23,25.175 -3.181,38.04c-2.409,-0.686 -4.944,-1.284 -7.581,-1.796c-0.176,-15.705 2.29,-31 7.439,-45.284c0.87,-1.138 1.8,-2.233 2.753,-3.308c0.381,-0.313 0.773,-0.625 1.163,-0.937c0.32,1.596 0.546,3.191 0.667,4.789c-0.49,2.827 -0.872,5.693 -1.26,8.496m-20.299,33.976c0.075,-1.575 0.243,-3.221 0.39,-4.924c0.199,-1.695 0.377,-3.45 0.66,-5.209c0.236,-1.77 0.588,-3.538 0.902,-5.313c0.383,-1.757 0.725,-3.522 1.176,-5.224c0.402,-1.717 0.898,-3.371 1.354,-4.978c0.236,-0.799 0.502,-1.573 0.744,-2.337c0.244,-0.763 0.482,-1.509 0.752,-2.22c0.514,-1.431 1.002,-2.782 1.516,-3.999c0.138,-0.34 0.265,-0.651 0.396,-0.974c0.265,-0.283 0.543,-0.575 0.822,-0.868c-0.036,0.096 -0.067,0.18 -0.104,0.277c-0.191,0.572 -0.391,1.173 -0.601,1.8c-0.435,1.246 -0.835,2.626 -1.257,4.084c-0.223,0.724 -0.413,1.483 -0.609,2.258c-0.193,0.776 -0.408,1.561 -0.593,2.372c-0.354,1.627 -0.742,3.298 -1.035,5.028c-0.342,1.715 -0.573,3.49 -0.845,5.25c-0.202,1.78 -0.442,3.547 -0.568,5.311c-0.174,1.754 -0.244,3.499 -0.339,5.18c-0.043,1.69 -0.111,3.318 -0.091,4.872c0.001,0.262 0.004,0.506 0.006,0.763c-0.898,-0.118 -1.805,-0.226 -2.718,-0.327c0.015,-0.276 0.027,-0.54 0.042,-0.822m418.098,149.549c-2.147,-3.263 -3.763,-4.821 -3.763,-4.821c0,0 -4.505,33.172 -24.162,61.836c-19.658,28.665 -39.719,33.988 -39.719,33.988l11.463,-35.624c0,0 -26.205,36.852 -150.694,33.577c-18.793,-0.495 -35.417,1.005 -50.133,3.884c8.566,-18.218 40.512,-93.721 22.765,-172.871c-3.179,-16.08 -8.548,-32.404 -16.769,-48.61c-1.758,-3.759 -3.809,-7.558 -6.205,-11.291c-0.563,-0.877 -1.166,-1.743 -1.77,-2.609c-0.118,-0.838 -0.271,-1.677 -0.451,-2.509c-0.904,-4.25 -2.21,-8.463 -3.895,-12.561c-1.441,-3.504 -2.385,-7.045 -3.83,-10.583c-4.626,-11.339 -10.514,-22.485 -18.658,-32.063c-7.901,-9.289 -17.082,-16.048 -28.43,-20.136c-17.227,-6.206 -35.836,-6.263 -52.627,-3.121c-27.572,5.168 -49.021,24.806 -55.794,51.797c-1.83,7.308 -2.041,14.768 -2.083,22.422c-33.628,-2.132 -72.539,6.819 -69.424,24.045c2.678,14.818 27.903,17.659 45.965,17.76c11.78,-15.33 33.038,-15.628 33.038,-15.628c-4.613,1.83 -13.771,8.625 -17.66,13.75c-6.588,8.685 -8.297,20.157 -8.297,20.157l-0.006,-0.003c-0.243,2.151 -0.95,4.565 -2.794,7.663c-6.846,11.485 -35.634,41.713 -36.13,47.154c-0.5,5.438 24.329,-2.157 46.378,-15.809c16.615,-10.283 22.354,-15.004 26.564,-16.565c0.063,0.011 67.912,12.417 86.183,-39.632c0,0 -22.48,33.386 -68.733,27.947c-5.836,-0.687 -11.445,-3.082 -15.466,-7.366c-4.34,-4.624 -5.781,-9.857 -5.837,-14.681c-0.101,-8.729 4.334,-16.115 4.334,-16.115c6.05,-6.296 24.429,-21.615 57.418,-17.963c40.461,4.48 80.386,10.831 87.129,1.828c15.571,25.7 20.255,55.98 21.437,76.423c0.095,3.156 2.323,97.702 -70.448,169.581c-38.825,23.645 -50.559,55.966 -50.559,55.966c75.559,-77.192 111.183,-62.45 180.39,-62.858c30.182,-0.179 53.544,-2.852 70.342,-5.808c-17.294,27.404 -83.024,70.988 -184.199,77.76c0,0 159.048,27.022 218.851,-69.018c2.66,-0.84 5.396,-1.741 8.227,-2.728c25.049,-8.733 42.475,-21.2 52.956,-30.464c20.534,46.608 -35.504,127.389 -35.504,127.389c10.467,-9.781 19.505,-19.355 27.326,-28.699c0,0 -1.265,67.967 -106.563,106.547c-39.344,13.148 -212.229,46.964 -277.55,-58.479c-0.457,29.92 17.063,56.516 17.063,56.516c0,0 -51.793,-47.834 -28.668,-119.573c23.128,-71.74 144.142,-132.267 146.601,-211.709c1.731,-55.983 -25.402,-72.892 -48.391,-72.994c-0.222,0.328 -0.427,0.663 -0.68,0.974c-0.27,0.333 -0.559,0.639 -0.843,0.95c1.748,0.462 3.426,1.148 4.903,1.929c0.448,0.236 0.87,0.505 1.283,0.786c13.032,2.611 26.356,11.798 30.211,37.238c8.187,54.053 -13.511,80.258 -87.222,147.822c-73.71,67.567 -76.986,133.495 -55.281,184.681c21.701,51.189 111.386,92.549 241.606,74.53c73.424,-10.159 140.246,-55.202 175.457,-120.688c13.676,-25.438 22.729,-54.672 22.305,-83.772c24.687,-61.087 -0.819,-105.409 -10.957,-119.549"
      style="fill:#1b2333;fill-rule:nonzero;"></path>
  </g>
  <g id="Logo">
    <path
      d="M1372.68,635.67c-24.412,40.688 -53.851,70.245 -88.315,88.669c-34.464,18.432 -76.592,27.65 -126.367,27.65c-34.472,0 -67.028,-6.106 -97.656,-18.314c-30.64,-12.204 -57.561,-29.44 -80.781,-51.7c-23.22,-22.255 -41.644,-48.697 -55.279,-79.337c-13.649,-30.627 -20.466,-64.371 -20.466,-101.239c0,-36.856 6.695,-70.603 20.103,-101.248c13.396,-30.627 31.47,-56.955 54.21,-78.979c22.732,-22.007 49.064,-39.133 78.984,-51.337c29.907,-12.204 61.145,-18.31 93.701,-18.31c26.319,0 50.259,2.64 71.799,7.896c21.54,5.28 40.928,12.57 58.16,21.897c17.232,9.341 32.548,20.466 45.951,33.39c13.4,12.933 25.137,26.817 35.188,41.652l-98.371,66.771c-4.788,-7.184 -10.3,-14.237 -16.516,-21.186c-6.22,-6.923 -13.762,-13.151 -22.609,-18.672c-8.869,-5.491 -19.157,-9.925 -30.88,-13.273c-11.737,-3.339 -25.254,-5.032 -40.566,-5.032c-18.205,0 -34.358,3.487 -48.47,10.41c-14.124,6.952 -26.206,16.516 -36.257,28.723c-10.057,12.204 -17.717,26.695 -22.976,43.442c-5.277,16.769 -7.9,34.712 -7.9,53.856c0,19.144 2.745,37.096 8.258,53.843c5.495,16.769 13.395,31.238 23.696,43.446c10.283,12.208 22.849,21.898 37.697,29.082c14.828,7.176 31.592,10.763 50.256,10.763c31.591,0 56.003,-6.329 73.244,-19.021c17.231,-12.68 31.107,-28.833 41.643,-48.474l100.519,64.632Z"
      style="fill:#1b2333;fill-rule:nonzero;"></path>
    <path
      d="M1612.5,492.78l-48.824,113.443l99.083,0l-50.259,-113.443Zm-108.423,252.746l-127.808,0l237.663,-496.88c0.951,-2.38 2.392,-3.584 4.312,-3.584c1.903,0 3.343,1.204 4.308,3.584l236.946,496.88l-134.987,0l-18.672,-41.652l-183.815,0l-17.947,41.652Z"
      style="fill:#1b2333;fill-rule:nonzero;"></path>
    <path
      d="M2083.52,529.401c29.196,0 49.902,-7.411 62.11,-22.256c12.204,-14.839 18.314,-34.219 18.314,-58.167c0,-11.956 -1.44,-22.854 -4.308,-32.67c-2.872,-9.804 -7.542,-18.31 -14.006,-25.482c-6.46,-7.188 -14.718,-12.806 -24.77,-16.878c-10.052,-4.063 -22.504,-6.102 -37.34,-6.102l-48.107,0l0,161.555l48.107,0Zm-48.107,216.122l-130.679,0l0,-488.256l185.251,0c33.031,0 62.223,4.919 87.599,14.722c25.363,9.812 46.781,23.338 64.261,40.566c17.468,17.24 30.754,37.462 39.85,60.669c9.088,23.228 13.644,48.478 13.644,75.754c0,27.287 -4.556,52.546 -13.644,75.753c-9.096,23.224 -22.382,43.332 -39.85,60.32c-17.48,16.987 -38.898,30.404 -64.261,40.207c-25.376,9.812 -54.568,14.718 -87.599,14.718l-54.572,0l0,105.547Z"
      style="fill:#1b2333;fill-rule:nonzero;"></path>
    <path
      d="M2511.46,752.696c-27.284,0 -51.818,-2.863 -73.598,-8.607c-21.788,-5.74 -40.927,-12.924 -57.443,-21.544c-16.516,-8.62 -30.64,-18.31 -42.36,-29.069c-11.736,-10.776 -21.43,-21.191 -29.082,-31.238l94.775,-71.084c11.964,14.832 25.852,27.402 41.652,37.69c15.792,10.296 35.896,15.442 60.308,15.442c19.623,0 34.826,-2.99 45.598,-8.978c10.772,-5.98 16.153,-15.906 16.153,-29.794c0,-10.523 -3.945,-18.781 -11.841,-24.774c-7.905,-5.979 -19.999,-11.61 -36.266,-16.878l-57.444,-19.388c-17.712,-5.748 -33.988,-12.919 -48.824,-21.539c-14.84,-8.616 -27.641,-18.908 -38.409,-30.876c-10.776,-11.956 -19.152,-25.722 -25.136,-41.286c-5.993,-15.547 -8.974,-33.381 -8.974,-53.485c0,-23.94 4.548,-44.987 13.644,-63.183c9.087,-18.201 21.418,-33.394 36.978,-45.598c15.547,-12.208 33.389,-21.422 53.493,-27.655c20.104,-6.211 40.924,-9.327 62.468,-9.327c21.54,0 40.805,1.794 57.797,5.382c16.988,3.596 31.954,8.38 44.874,14.36c12.932,5.992 24.298,12.818 34.11,20.461c9.803,7.673 18.31,15.809 25.494,24.416l-74.68,78.268c-10.048,-10.528 -21.068,-19.034 -33.023,-25.486c-11.977,-6.464 -27.768,-9.702 -47.392,-9.702c-15.8,0 -27.646,3.238 -35.542,9.702c-7.896,6.452 -11.85,14.478 -11.85,24.05c0,9.58 2.754,16.992 8.258,22.26c5.5,5.268 14.238,9.812 26.21,13.639l64.619,21.549c24.412,8.14 44.992,17.109 61.752,26.913c16.748,9.824 30.156,20.828 40.208,33.032c10.056,12.208 17.341,25.62 21.902,40.22c4.543,14.596 6.817,30.513 6.817,47.741c0,22.504 -3.583,43.206 -10.763,62.114c-7.18,18.903 -18.314,35.171 -33.39,48.823c-15.084,13.64 -34.354,24.298 -57.806,31.946c-23.456,7.651 -51.228,11.483 -83.287,11.483"
      style="fill:#1b2333;fill-rule:nonzero;"></path>
    <path
      d="M2904.93,751.266c-0.964,2.391 -2.396,3.587 -4.308,3.587c-1.92,0 -3.352,-1.196 -4.303,-3.587l-204.643,-494.001l137.147,0l91.183,229.055l104.84,-238.382c1.903,-4.784 3.823,-4.784 5.74,0l109.855,238.382l86.883,-229.055l130.679,0l-201.762,494.001c-2.405,6.699 -5.277,6.699 -8.62,0l-122.059,-262.07l-120.632,262.07Z"
      style="fill:#1b2333;fill-rule:nonzero;"></path>
    <path
      d="M3499.45,492.78l-48.824,113.443l99.083,0l-50.259,-113.443Zm-108.423,252.746l-127.812,0l237.667,-496.88c0.951,-2.38 2.392,-3.584 4.308,-3.584c1.907,0 3.347,1.204 4.312,3.584l236.942,496.88l-134.983,0l-18.672,-41.652l-183.81,0l-17.952,41.652Z"
      style="fill:#1b2333;fill-rule:nonzero;"></path>
    <path
      d="M3914.47,502.111l0,243.414l-122.783,0l0,-494.724c0,-2.379 0.72,-4.06 2.152,-5.02c1.431,-0.96 4.059,0.249 7.895,3.588l306.598,252.742l0,-244.846l122.784,0l0,495.432c0,2.876 -0.72,4.67 -2.152,5.394c-1.432,0.708 -4.072,-0.61 -7.896,-3.946l-306.598,-252.034Z"
      style="fill:#1b2333;fill-rule:nonzero;"></path>
  </g>
</svg>